<?xml version="1.0" encoding="UTF-8" standalone="no"?> <svg xmlns="http://www.w3.org/2000/svg" xmlns:svg="http://www.w3.org/2000/svg" height="512" viewBox="0 0 256 256" width="512" fill="#000000" version="1.1" id="svg23"><defs id="defs27"></defs><path d="M 0,0 H 24 V 24 H 0 Z" fill="none" id="path19"></path><rect style="fill:#ef5555;fill-opacity:1;stroke:#000000;stroke-width:0;stroke-miterlimit:4;stroke-dasharray:none;stroke-opacity:1" id="rect34197" width="256" height="256" x="5e-07" y="5e-07"></rect><path d="m 128.00004,43 0.12495,102.56945 C 120.75,142.26388 112.25,140.22223 103.12501,140.22223 75.375001,140.22223 53,157.62499 53,179.11111 53,200.59723 75.375001,218 103.12501,218 130.87501,218 153,200.59723 153,179.11111 V 81.888889 h 50 V 43 Z m -24.87501,155.55555 c -13.749996,0 -25.000005,-8.75 -25.000005,-19.44444 0,-10.69446 11.250009,-19.44446 25.000005,-19.44446 13.75,0 25,8.75 25,19.44446 0,10.69444 -11.25,19.44444 -25,19.44444 z" id="path21" style="fill:#3f51b5;fill-opacity:1;stroke-width:11.0241"></path></svg> 