<?xml version="1.0" encoding="UTF-8" standalone="no"?>
<svg
   height="512"
   viewBox="0 0 511.99999 512"
   width="512"
   fill="#000000"
   version="1.1"
   id="svg39"
   xmlns="http://www.w3.org/2000/svg"
   xmlns:svg="http://www.w3.org/2000/svg">
  <defs
     id="defs43" />
  <rect
     fill="none"
     height="24"
     width="24"
     id="rect33"
     x="550.60498"
     y="3.8618791" />
  <g
     id="layer1"
     transform="translate(551.60498,5.8618774)">
    <circle
       style="fill:#ffffff;stroke-width:0.5"
       id="path1310"
       cx="-295.60498"
       cy="250.13812"
       r="256" />
    <g
       id="g37"
       transform="matrix(16.43806,0,0,17.221316,-519.89305,30.001696)"
       style="fill:#008000">
      <path
         d="m 19.88,18.47 c 0.44,-0.7 0.7,-1.51 0.7,-2.39 0,-2.49 -2.01,-4.5 -4.5,-4.5 -2.49,0 -4.5,2.01 -4.5,4.5 0,2.49 2.01,4.5 4.49,4.5 0.88,0 1.7,-0.26 2.39,-0.7 L 21.58,23 23,21.58 Z m -3.8,0.11 c -1.38,0 -2.5,-1.12 -2.5,-2.5 0,-1.38 1.12,-2.5 2.5,-2.5 1.38,0 2.5,1.12 2.5,2.5 0,1.38 -1.12,2.5 -2.5,2.5 z m -0.36,-8.5 c -0.74,0.02 -1.45,0.18 -2.1,0.45 L 13.07,9.7 9.27,15.88 6.26,12.36 2.63,18.17 1,17 6,9 9,12.5 13,6 c 0,0 2.72,4.08 2.72,4.08 z m 2.59,0.5 c -0.64,-0.28 -1.33,-0.45 -2.05,-0.49 0,0 5.12,-8.09 5.12,-8.09 L 23,3.18 Z"
         id="path35"
         style="fill:#008000" />
    </g>
    <path
       style="fill:#000000;stroke-width:0.63288"
       d="m 364.51805,408.49418 c -11.82337,-12.37344 -23.20758,-24.36407 -25.29824,-26.64586 l -3.80121,-4.14869 -3.86337,2.3014 c -5.32647,3.17296 -12.86667,6.26741 -19.58777,8.0387 -4.92258,1.2973 -7.04446,1.48407 -16.41245,1.44464 -9.58009,-0.0403 -11.45242,-0.23086 -17.08777,-1.73888 -29.42203,-7.87335 -50.91239,-33.04761 -55.43292,-64.93527 -0.97808,-6.89937 -0.3689,-20.16371 1.25173,-27.25521 3.45797,-15.13125 9.79545,-26.79661 20.54627,-37.81941 6.651,-6.81926 12.52258,-11.06298 20.76807,-15.01022 27.72292,-13.27137 59.10089,-7.6729 81.25654,14.49784 23.75558,23.77176 29.51348,60.02633 14.39763,90.6546 -1.57602,3.19337 -2.76334,6.08143 -2.63851,6.41793 0.19296,0.52012 27.96681,29.72062 45.38071,47.71176 l 5.33141,5.50813 -11.26069,11.73786 c -6.19338,6.45581 -11.43882,11.73785 -11.65654,11.73785 -0.21771,0 -10.06951,-10.12373 -21.89289,-22.49717 z m -55.86584,-54.47453 c 12.98804,-4.10291 24.10275,-16.39672 27.50327,-30.42089 1.3945,-5.75113 1.39927,-16.33128 0.01,-21.71495 -0.58395,-2.26255 -2.24225,-6.53449 -3.68512,-9.4932 -2.11623,-4.33949 -3.6756,-6.42426 -8.066,-10.78371 -8.47705,-8.41727 -16.98928,-11.99998 -28.51099,-11.99998 -6.71862,0 -11.48323,1.16144 -18.06882,4.40453 -22.13154,10.89871 -29.95647,40.65415 -16.41999,62.43943 5.90346,9.50089 16.51352,16.97031 26.88889,18.92962 6.22577,1.17568 13.95586,0.65873 20.34895,-1.36085 z"
       id="path712"
       transform="translate(-551.60498,-5.8618774)" />
  </g>
</svg>
