<?xml version="1.0" encoding="UTF-8" standalone="no"?> <svg xmlns:inkscape="http://www.inkscape.org/namespaces/inkscape" xmlns:sodipodi="http://sodipodi.sourceforge.net/DTD/sodipodi-0.dtd" xmlns="http://www.w3.org/2000/svg" xmlns:svg="http://www.w3.org/2000/svg" width="512.00647" height="512.00647" viewBox="0 0 512.00647 512.00647" version="1.1" id="svg5" inkscape:version="1.1 (c68e22c387, 2021-05-23)" sodipodi:docname="tra.svg"><defs id="defs2"><rect x="-1062.7738" y="-45.792766" width="761.30474" height="612.47825" id="rect43170"></rect><rect x="-478.95972" y="484.35645" width="600.38611" height="345.39066" id="rect17497"></rect><rect x="-381.8186" y="582.84674" width="496.49908" height="253.64627" id="rect14473"></rect><rect x="746.70477" y="-342.23969" width="1609.375" height="1648.973" id="rect30197"></rect><rect x="823.07227" y="-237.58788" width="1476.439" height="1493.4095" id="rect10772"></rect><rect x="-478.95972" y="484.35645" width="600.38611" height="345.39066" id="rect17497-4"></rect><rect x="-381.8186" y="582.84674" width="496.49908" height="253.64627" id="rect14473-6"></rect><rect x="746.70477" y="-342.23969" width="1609.375" height="1648.973" id="rect30197-4"></rect><rect x="823.07227" y="-237.58788" width="1476.439" height="1493.4095" id="rect10772-8"></rect><rect x="746.70477" y="-342.23969" width="1609.375" height="1648.973" id="rect30197-8"></rect><rect x="823.07227" y="-237.58788" width="1476.439" height="1493.4095" id="rect10772-6"></rect><rect x="746.70477" y="-342.23969" width="1609.375" height="1648.973" id="rect30197-0"></rect><rect x="823.07227" y="-237.58788" width="1476.439" height="1493.4095" id="rect10772-61"></rect><rect x="746.70477" y="-342.23969" width="1609.375" height="1648.973" id="rect30197-9"></rect><rect x="823.07227" y="-237.58788" width="1476.439" height="1493.4095" id="rect10772-1"></rect><rect x="97.141129" y="107.93458" width="1775.5239" height="1764.7305" id="rect38079"></rect><rect x="21.586918" y="16.190187" width="1894.252" height="1910.4423" id="rect24741"></rect><rect x="26.983646" y="37.777103" width="1872.665" height="1867.2683" id="rect5581"></rect></defs><g inkscape:groupmode="layer" id="layer4" inkscape:label="Layer 2"><rect style="opacity:1;fill:#ffffff;fill-opacity:1;stroke:#000000;stroke-width:0;stroke-miterlimit:4;stroke-dasharray:none;stroke-opacity:1;paint-order:normal" id="rect59532" width="512" height="512" x="27.172348" y="16.820007" rx="75.900002" ry="75" transform="translate(-27.172348,-16.820007)"></rect></g><g inkscape:label="Layer 1" inkscape:groupmode="layer" id="layer1" transform="translate(-27.172348,-16.820007)"><text xml:space="preserve" transform="scale(0.26458333)" id="text14471" style="font-style:normal;font-weight:normal;font-size:40px;line-height:1.25;font-family:sans-serif;white-space:pre;shape-inside:url(#rect14473);fill:#000000;fill-opacity:1;stroke:none"></text><g id="g59397" transform="translate(27.172348,16.820007)"><g inkscape:label="Layer 1" id="layer1-3" transform="translate(-19.990383,-59.971153)"><rect style="fill:#ffffff;stroke-width:0.264583" id="rect71753" width="512" height="512" x="19.990383" y="59.971153" rx="283.46457" ry="283.46457"></rect></g><g id="layer3" inkscape:label="Layer 3"><path style="fill:#9fa8da;fill-opacity:1;stroke-width:3.81606" d="m 1553.138,1062.7738 c 0,-122.78187 -1.4382,-223.23975 -3.196,-223.23975 -1.7577,0 -132.2538,70.40637 -289.9913,156.45861 -157.7375,86.05224 -288.80664,156.45864 -291.26472,156.45864 -4.77638,0 -706.54405,-381.8662 -704.61498,-383.41556 0.62999,-0.50597 159.42623,-87.17835 352.88052,-192.60526 l 351.73507,-191.68529 355.19071,193.73853 355.1908,193.73855 v 256.89563 256.8956 h -62.9651 -62.965 z" id="path76374" transform="scale(0.26458333)"></path><path style="fill:#9fa8da;fill-opacity:1;stroke-width:3.81606" d="m 742.22442,1419.4582 -221.3317,-121.405 -1.00546,-126.2259 c -0.55301,-69.4242 -0.2047,-126.2258 0.77401,-126.2258 0.9787,0 102.15319,54.8897 224.83218,121.9771 l 223.05271,121.977 220.74474,-120.4979 c 121.4096,-66.2739 222.8912,-121.3473 225.5148,-122.3854 3.7578,-1.4868 4.7701,24.8505 4.7701,124.1148 v 126.0022 l -224.5314,122.4503 c -123.4922,67.3476 -226.0966,122.2642 -228.00978,122.0369 -1.91319,-0.2274 -103.07776,-55.0456 -224.8102,-121.8183 z" id="path76413" transform="scale(0.26458333)"></path></g><g id="layer2" inkscape:label="Layer 2" transform="translate(-19.990383,-59.971153)"></g></g></g></svg> 